<?xml version="1.0" encoding="UTF-8"?>
<svg id="Capa_1" data-name="Capa 1" xmlns="http://www.w3.org/2000/svg" viewBox="0 0 1920 1920">
  <defs>
    <style>
      .cls-1 {
        fill: #1e48c9;
      }
    </style>
  </defs>
  <polygon class="cls-1" points="798.43 1287.8 897.07 1523.11 697.72 1523.11 796.37 1287.8 798.43 1287.8"/>
  <path class="cls-1" d="M1569.78,0H349.21C156.35,0,0,156.35,0,349.22V1569.79c0,192.86,156.35,349.21,349.21,349.21H1569.78c192.88,0,349.22-156.35,349.22-349.21V349.22C1919,156.35,1762.65,0,1569.78,0ZM1022.44,1814.94l-62.68-146.94h-323.69l-62.68,146.94h-189.07l339.1-724.44h149l339.1,724.44h-189.07Zm762.46-98.65c-25.36,34.94-60.99,62-106.87,81.18-45.91,19.16-100.03,28.77-162.36,28.77-56.88,0-111.34-7.04-163.38-21.07-52.07-14.04-94.9-32.7-128.45-56l52.41-146.94c31.5,21.25,68.49,38.02,110.98,50.35,42.46,12.33,85.29,18.5,128.45,18.5s76.89-5.99,95.05-17.98c18.14-11.98,27.23-26.88,27.23-44.7,0-15.75-6.35-28.43-19.01-38.02-12.69-9.58-35.12-17.8-67.31-24.66l-120.23-25.69c-130.17-28.08-195.24-96.25-195.24-204.49,0-47.27,12.84-88.71,38.53-124.34,25.69-35.62,61.47-63.2,107.38-82.72,45.88-19.52,99.32-29.29,160.3-29.29,49.99,0,97.44,7.03,142.32,21.07,44.85,14.05,81.33,33.06,109.44,57.03l-52.41,137.7c-26.05-19.18-56.18-34.08-90.43-44.7-34.27-10.61-71.26-15.93-110.98-15.93s-67.82,6.68-88.37,20.04c-20.55,13.36-30.83,30.66-30.83,51.89,0,15.08,6.17,27.41,18.5,36.99,12.33,9.59,34.24,17.82,65.76,24.66l119.2,25.69c132.2,28.09,198.32,94.54,198.32,199.35,0,47.27-12.69,88.37-38.02,123.31Z"/>
</svg>